<svg width="27" height="27" viewBox="0 0 27 27" fill="none" xmlns="http://www.w3.org/2000/svg">
<path d="M7.40252 17.0565C7.98 17.0565 8.53384 16.8474 8.94218 16.475C9.35053 16.1027 9.57994 15.5978 9.57994 15.0712C9.57994 14.5447 9.35053 14.0397 8.94218 13.6674C8.53384 13.2951 7.98 13.0859 7.40252 13.0859C6.82503 13.0859 6.27119 13.2951 5.86285 13.6674C5.4545 14.0397 5.2251 14.5447 5.2251 15.0712C5.2251 15.5978 5.4545 16.1027 5.86285 16.475C6.27119 16.8474 6.82503 17.0565 7.40252 17.0565ZM7.40252 22.6153C7.98 22.6153 8.53384 22.4062 8.94218 22.0339C9.35053 21.6616 9.57994 21.1566 9.57994 20.6301C9.57994 20.1035 9.35053 19.5986 8.94218 19.2262C8.53384 18.8539 7.98 18.6448 7.40252 18.6448C6.82503 18.6448 6.27119 18.8539 5.86285 19.2262C5.4545 19.5986 5.2251 20.1035 5.2251 20.6301C5.2251 21.1566 5.4545 21.6616 5.86285 22.0339C6.27119 22.4062 6.82503 22.6153 7.40252 22.6153ZM15.6767 15.0712C15.6767 15.5978 15.4473 16.1027 15.039 16.475C14.6306 16.8474 14.0768 17.0565 13.4993 17.0565C12.9218 17.0565 12.368 16.8474 11.9596 16.475C11.5513 16.1027 11.3219 15.5978 11.3219 15.0712C11.3219 14.5447 11.5513 14.0397 11.9596 13.6674C12.368 13.2951 12.9218 13.0859 13.4993 13.0859C14.0768 13.0859 14.6306 13.2951 15.039 13.6674C15.4473 14.0397 15.6767 14.5447 15.6767 15.0712ZM13.4993 22.6153C14.0768 22.6153 14.6306 22.4062 15.039 22.0339C15.4473 21.6616 15.6767 21.1566 15.6767 20.6301C15.6767 20.1035 15.4473 19.5986 15.039 19.2262C14.6306 18.8539 14.0768 18.6448 13.4993 18.6448C12.9218 18.6448 12.368 18.8539 11.9596 19.2262C11.5513 19.5986 11.3219 20.1035 11.3219 20.6301C11.3219 21.1566 11.5513 21.6616 11.9596 22.0339C12.368 22.4062 12.9218 22.6153 13.4993 22.6153ZM21.7735 15.0712C21.7735 15.5978 21.5441 16.1027 21.1357 16.475C20.7274 16.8474 20.1736 17.0565 19.5961 17.0565C19.0186 17.0565 18.4647 16.8474 18.0564 16.475C17.6481 16.1027 17.4186 15.5978 17.4186 15.0712C17.4186 14.5447 17.6481 14.0397 18.0564 13.6674C18.4647 13.2951 19.0186 13.0859 19.5961 13.0859C20.1736 13.0859 20.7274 13.2951 21.1357 13.6674C21.5441 14.0397 21.7735 14.5447 21.7735 15.0712Z" fill="#0162D1" fill-opacity="0.84"/>
<path fill-rule="evenodd" clip-rule="evenodd" d="M6.53235 0C6.87884 0 7.21114 0.125498 7.45615 0.348887C7.70116 0.572276 7.8388 0.875257 7.8388 1.19118V2.38235H19.1614V1.19118C19.1614 0.875257 19.299 0.572276 19.544 0.348887C19.789 0.125498 20.1213 0 20.4678 0C20.8143 0 21.1466 0.125498 21.3916 0.348887C21.6366 0.572276 21.7743 0.875257 21.7743 1.19118V2.39506C22.0391 2.40141 22.2858 2.41306 22.5146 2.43C23.1765 2.47765 23.7967 2.58565 24.3837 2.85882C25.2852 3.27759 26.0182 3.94588 26.4775 4.76788C26.7771 5.30312 26.8956 5.86853 26.9478 6.47206C27.0001 7.05176 27.0001 7.75853 27.0001 8.60824V20.7741C27.0001 21.6238 27.0001 22.3306 26.9478 22.9103C26.8956 23.5138 26.7771 24.0792 26.4775 24.6145C26.0187 25.4362 25.2863 26.1045 24.3854 26.5235C23.7967 26.7967 23.1765 26.9047 22.5146 26.9524C21.8788 27 21.1036 27 20.1734 27H6.82848C5.89654 27 5.12138 27 4.48558 26.9524C3.82364 26.9047 3.20351 26.7967 2.61648 26.5235C1.71546 26.1056 0.982561 25.4385 0.522673 24.6176C0.22306 24.0808 0.104608 23.5154 0.05235 22.9119C9.19194e-05 22.3322 9.15527e-05 21.6254 9.15527e-05 20.7773V8.60824C9.15527e-05 7.75853 9.19194e-05 7.05176 0.05235 6.47206C0.104608 5.86853 0.22306 5.30312 0.522673 4.76788C0.981969 3.94588 1.71493 3.27759 2.61648 2.85882C3.20351 2.58565 3.82364 2.47765 4.48558 2.43C4.71435 2.41306 4.96112 2.40141 5.2259 2.39506V1.19118C5.2259 1.03475 5.25969 0.879853 5.32535 0.735333C5.391 0.590813 5.48723 0.459498 5.60855 0.348887C5.72986 0.238276 5.87389 0.150535 6.03239 0.0906728C6.1909 0.0308106 6.36078 0 6.53235 0ZM24.3872 11.1176H2.61299V20.7265C2.61299 21.6349 2.61299 22.2464 2.65654 22.7149C2.69661 23.1724 2.76977 23.3899 2.8499 23.5329C3.05893 23.9077 3.39164 24.2111 3.80274 24.4016C3.95951 24.4747 4.19816 24.5414 4.69809 24.5779C5.2137 24.6161 5.88261 24.6176 6.88074 24.6176H20.1194C21.1158 24.6176 21.7865 24.6176 22.3004 24.5779C22.802 24.5414 23.0407 24.4747 23.1974 24.4016C23.6078 24.2112 23.9414 23.907 24.1503 23.5329C24.2304 23.3899 24.3036 23.1724 24.3436 22.7149C24.3854 22.2464 24.3872 21.6349 24.3872 20.7265V11.1176ZM10.8872 5.95588C10.5407 5.95588 10.2084 6.08138 9.96339 6.30477C9.71838 6.52816 9.58074 6.83114 9.58074 7.14706C9.58074 7.46298 9.71838 7.76596 9.96339 7.98935C10.2084 8.21274 10.5407 8.33823 10.8872 8.33823H16.113C16.4595 8.33823 16.7918 8.21274 17.0368 7.98935C17.2818 7.76596 17.4194 7.46298 17.4194 7.14706C17.4194 6.83114 17.2818 6.52816 17.0368 6.30477C16.7918 6.08138 16.4595 5.95588 16.113 5.95588H10.8872Z" fill="#0162D1" fill-opacity="0.84"/>
</svg>
