<svg width="30" height="30" viewBox="0 0 30 30" fill="none" xmlns="http://www.w3.org/2000/svg">
<path d="M15 12C16.5913 12 18.1174 11.3679 19.2426 10.2426C20.3679 9.11742 21 7.5913 21 6C21 4.4087 20.3679 2.88258 19.2426 1.75736C18.1174 0.632141 16.5913 0 15 0C13.4087 0 11.8826 0.632141 10.7574 1.75736C9.63214 2.88258 9 4.4087 9 6C9 7.5913 9.63214 9.11742 10.7574 10.2426C11.8826 11.3679 13.4087 12 15 12ZM5.25 16.5C6.24456 16.5 7.19839 16.1049 7.90165 15.4017C8.60491 14.6984 9 13.7446 9 12.75C9 11.7554 8.60491 10.8016 7.90165 10.0983C7.19839 9.39509 6.24456 9 5.25 9C4.25544 9 3.30161 9.39509 2.59835 10.0983C1.89509 10.8016 1.5 11.7554 1.5 12.75C1.5 13.7446 1.89509 14.6984 2.59835 15.4017C3.30161 16.1049 4.25544 16.5 5.25 16.5ZM28.5 12.75C28.5 13.7446 28.1049 14.6984 27.4017 15.4017C26.6984 16.1049 25.7446 16.5 24.75 16.5C23.7554 16.5 22.8016 16.1049 22.0983 15.4017C21.3951 14.6984 21 13.7446 21 12.75C21 11.7554 21.3951 10.8016 22.0983 10.0983C22.8016 9.39509 23.7554 9 24.75 9C25.7446 9 26.6984 9.39509 27.4017 10.0983C28.1049 10.8016 28.5 11.7554 28.5 12.75ZM15 13.5C16.9891 13.5 18.8968 14.2902 20.3033 15.6967C21.7098 17.1032 22.5 19.0109 22.5 21V30H7.5V21C7.5 19.0109 8.29018 17.1032 9.6967 15.6967C11.1032 14.2902 13.0109 13.5 15 13.5ZM4.5 21C4.5 19.9605 4.65 18.957 4.932 18.009L4.677 18.03C3.39132 18.1712 2.203 18.782 1.33989 19.7453C0.476792 20.7086 -0.000335638 21.9566 1.77146e-07 23.25V30H4.5V21ZM30 30V23.25C30.0002 21.9126 29.4899 20.6255 28.5733 19.6515C27.6567 18.6775 26.403 18.09 25.068 18.009C25.3485 18.957 25.5 19.9605 25.5 21V30H30Z" fill="#0162D1" fill-opacity="0.84"/>
</svg>
