<svg width="30" height="27" viewBox="0 0 30 27" fill="none" xmlns="http://www.w3.org/2000/svg">
<path d="M14.6667 -0.335938C15.3739 -0.335937 16.0522 -0.0549861 16.5523 0.445111C17.0524 0.945208 17.3333 1.62349 17.3333 2.33073C17.3333 3.3174 16.8 4.18406 16 4.6374V6.33073H17.3333C19.8087 6.33073 22.1827 7.31406 23.933 9.0644C25.6833 10.8147 26.6667 13.1887 26.6667 15.6641H28C28.3536 15.6641 28.6928 15.8045 28.9428 16.0546C29.1929 16.3046 29.3333 16.6438 29.3333 16.9974V20.9974C29.3333 21.351 29.1929 21.6902 28.9428 21.9402C28.6928 22.1903 28.3536 22.3307 28 22.3307H26.6667V23.6641C26.6667 24.3713 26.3857 25.0496 25.8856 25.5497C25.3855 26.0498 24.7072 26.3307 24 26.3307H5.33333C4.62609 26.3307 3.94781 26.0498 3.44772 25.5497C2.94762 25.0496 2.66667 24.3713 2.66667 23.6641V22.3307H1.33333C0.979711 22.3307 0.640573 22.1903 0.390524 21.9402C0.140476 21.6902 0 21.351 0 20.9974V16.9974C0 16.6438 0.140476 16.3046 0.390524 16.0546C0.640573 15.8045 0.979711 15.6641 1.33333 15.6641H2.66667C2.66667 13.1887 3.65 10.8147 5.40034 9.0644C7.15068 7.31406 9.52465 6.33073 12 6.33073H13.3333V4.6374C12.5333 4.18406 12 3.3174 12 2.33073C12 1.62349 12.281 0.945208 12.781 0.445111C13.2811 -0.0549861 13.9594 -0.335937 14.6667 -0.335938ZM8.66667 14.3307C7.78261 14.3307 6.93477 14.6819 6.30964 15.307C5.68452 15.9322 5.33333 16.78 5.33333 17.6641C5.33333 18.5481 5.68452 19.396 6.30964 20.0211C6.93477 20.6462 7.78261 20.9974 8.66667 20.9974C9.55072 20.9974 10.3986 20.6462 11.0237 20.0211C11.6488 19.396 12 18.5481 12 17.6641C12 16.78 11.6488 15.9322 11.0237 15.307C10.3986 14.6819 9.55072 14.3307 8.66667 14.3307ZM20.6667 14.3307C19.7826 14.3307 18.9348 14.6819 18.3096 15.307C17.6845 15.9322 17.3333 16.78 17.3333 17.6641C17.3333 18.5481 17.6845 19.396 18.3096 20.0211C18.9348 20.6462 19.7826 20.9974 20.6667 20.9974C21.5507 20.9974 22.3986 20.6462 23.0237 20.0211C23.6488 19.396 24 18.5481 24 17.6641C24 16.78 23.6488 15.9322 23.0237 15.307C22.3986 14.6819 21.5507 14.3307 20.6667 14.3307Z" fill="white"/>
</svg>
